<svg xmlns="http://www.w3.org/2000/svg" viewBox="0 0 513.57 262.14"><defs><style>.cls-1{fill:#a58580;}.cls-2{fill:#c5a9ab;}.cls-3{fill:#724c54;}.cls-4{fill:#002236;}.cls-5{fill:#65160d;}.cls-6{fill:#962c20;}.cls-7{fill:#632524;}.cls-8{fill:#adc6d6;}.cls-9{fill:#7e9eb3;}.cls-10{fill:#5d8099;}.cls-11{fill:#416680;}.cls-12{fill:#154b66;}.cls-13{fill:#003650;}.cls-14{fill:none;stroke:#1d1d1b;}.cls-15{font-size:15.05px;}.cls-15,.cls-16,.cls-18,.cls-20,.cls-21,.cls-22,.cls-28,.cls-29{fill:#1d1d1b;}.cls-15,.cls-16,.cls-17,.cls-18,.cls-19,.cls-20,.cls-21,.cls-22,.cls-23,.cls-24,.cls-25,.cls-26,.cls-27,.cls-28,.cls-29{font-family:MyriadPro-Regular, Myriad Pro;}.cls-16,.cls-17{font-size:13.51px;}.cls-17{fill:#fff3e7;}.cls-18{font-size:12.74px;}.cls-19,.cls-20,.cls-21,.cls-22{font-size:14px;}.cls-19,.cls-23{fill:#fff;}.cls-21{letter-spacing:0em;}.cls-22{letter-spacing:0em;}.cls-23,.cls-24,.cls-25,.cls-26,.cls-27{font-size:15px;}.cls-24,.cls-25,.cls-26,.cls-27{fill:#3c3c3b;}.cls-25{letter-spacing:-0.03em;}.cls-26{letter-spacing:-0.01em;}.cls-27{letter-spacing:0.02em;}.cls-28,.cls-29{font-size:11px;}.cls-29{letter-spacing:0em;}</style></defs><g id="Colours"><polygon class="cls-1" points="256.84 31.22 256.84 172.94 339.05 172.94 339.05 31.22 256.84 31.22 256.84 31.22"/><polygon class="cls-2" points="174.53 31.24 174.53 172.79 256.84 172.79 256.84 31.24 174.53 31.24 174.53 31.24"/><polygon class="cls-3" points="174.64 172.94 174.64 198.75 339.05 198.75 339.05 172.94 174.64 172.94 174.64 172.94"/><polygon class="cls-4" points="349.16 198.75 513.57 198.75 513.57 172.98 349.16 172.98 349.16 198.75 349.16 198.75"/><polygon class="cls-5" points="0 172.96 0 198.75 164.41 198.75 164.41 172.96 0 172.96 0 172.96"/><polygon class="cls-6" points="0 31.24 0 172.96 82.2 172.96 82.2 31.24 0 31.24 0 31.24"/><polygon class="cls-7" points="82.2 31.24 82.2 172.96 164.41 172.96 164.41 31.24 82.2 31.24 82.2 31.24"/><polygon class="cls-8" points="349.16 31.22 349.16 172.94 376.52 172.94 376.52 31.22 349.16 31.22 349.16 31.22"/><polygon class="cls-9" points="376.52 31.22 376.52 172.94 403.87 172.94 403.87 31.22 376.52 31.22 376.52 31.22"/><polygon class="cls-10" points="403.87 31.22 403.87 172.94 431.23 172.94 431.23 31.22 403.87 31.22 403.87 31.22"/><polygon class="cls-11" points="431.23 31.22 431.23 172.94 458.58 172.94 458.58 31.22 431.23 31.22 431.23 31.22"/><polygon class="cls-12" points="458.58 31.22 458.58 172.94 485.93 172.94 485.93 31.22 458.58 31.22 458.58 31.22"/><polygon class="cls-13" points="485.93 31.22 485.93 172.94 513.57 172.94 513.57 31.22 485.93 31.22 485.93 31.22"/></g><g id="Text_frame" data-name="Text + frame"><path class="cls-14" d="M487.46,26.5V39.86M432.75,26.5V39.84M378,26.5V39.86M405.4,26.5V39.86M313.15,26.5V39.86M230.63,26.5V39.86m-174.14-13V40.19" transform="translate(-15.2 -8.64)"/><text class="cls-15" transform="translate(235.08 116.31)"> </text><text class="cls-16" transform="translate(315.59 116.31)"> </text><text class="cls-17" transform="translate(137.29 116.31)"> </text><text class="cls-18" transform="translate(226 234.73)"> </text><text class="cls-19" transform="translate(14.68 97.16)">Nutrition</text><text class="cls-19" transform="translate(27.54 113.95)">(1/6)</text><text class="cls-19" transform="translate(108.12 97.86)">Child </text><text class="cls-19" transform="translate(96.51 114.66)">mor</text><text class="cls-19" transform="translate(120.79 114.66)">talit</text><text class="cls-19" transform="translate(143.51 114.66)">y</text><text class="cls-19" transform="translate(109.75 131.46)">(1/6)</text><text class="cls-20" transform="translate(193.11 97.7)">Y</text><text class="cls-20" transform="translate(199.62 97.7)">ears of </text><text class="cls-20" transform="translate(187.11 114.5)">schooling</text><text class="cls-20" transform="translate(202.12 131.3)">(1/6)</text><text class="cls-20" transform="translate(277.87 97.88)">School </text><text class="cls-21" transform="translate(264.59 114.68)">attendanc</text><text class="cls-20" transform="translate(323.85 114.68)">e</text><text class="cls-20" transform="translate(284.17 131.48)">(1/6)</text><text class="cls-20" transform="translate(422.09 164.23) rotate(-90)">Drink</text><text class="cls-22" transform="translate(422.09 132.41) rotate(-90)">ing water (1/18)</text><text class="cls-23" transform="translate(45.41 191.62)">Health (1/3)</text><text class="cls-23" transform="translate(211.75 191.6)">Education(1/3)</text><text class="cls-23" transform="translate(363.29 191.6)">Living Standards (1/3)</text><text class="cls-24" transform="translate(180.51 227.49)">3 Dimensions of </text><text class="cls-25" transform="translate(284.15 227.49)">Po</text><text class="cls-26" transform="translate(299.89 227.49)">ve</text><text class="cls-27" transform="translate(314.47 227.49)">rt</text><text class="cls-24" transform="translate(324.83 227.49)">y</text><text class="cls-24" transform="translate(215.98 12.56)">10 Indicators</text><path class="cls-14" d="M138.51,26.5V39.86m321.6-13.38V39.84M514.9,26.5V39.86M56,27H515.4" transform="translate(-15.2 -8.64)"/><text class="cls-20" transform="translate(367.22 157.91) rotate(-90)">C</text><text class="cls-20" transform="translate(367.22 149.95) rotate(-90)">ook</text><text class="cls-20" transform="translate(367.22 127.77) rotate(-90)">ing fuel (1/18)</text><text class="cls-20" transform="translate(393.72 150.49) rotate(-90)">Sanitation (1/18)</text><text class="cls-19" transform="translate(448.96 149.54) rotate(-90)">Elec</text><text class="cls-19" transform="translate(448.96 125.88) rotate(-90)">tricity (1/18)</text><text class="cls-19" transform="translate(476.1 145.25) rotate(-90)">Housing (1/18)</text><text class="cls-19" transform="translate(505.06 139.24) rotate(-90)">Assets (1/18)</text><path class="cls-14" d="M446.57,207.39V221.7M272,207.4v14.3M97.41,207.39V221.7m-.5-.5H447.07" transform="translate(-15.2 -8.64)"/><text x="-15.2" y="-8.64"/><text x="-15.2" y="-8.64"/><text x="-15.2" y="-8.64"/><text x="-15.2" y="-8.64"/><text x="-15.2" y="-8.64"/><text x="-15.2" y="-8.64"/><text class="cls-28" transform="translate(1.42 258.59)"> </text><text class="cls-29" transform="translate(1.42 246.19)">© OPHI<tspan x="0" y="13.2">Source: OPHI 2018</tspan></text></g></svg>